<svg viewBox="0 0 35 30" fill="none" xmlns="http://www.w3.org/2000/svg">
<path d="M33.4052 9.30472H16.2392V11.8768H13.8185V9.29745C10.0361 9.74317 6.77626 12.4022 5.55106 15.9779C5.00715 15.6673 4.39062 15.489 3.71947 15.489C1.66184 15.489 0 17.157 0 19.2146C0 21.2723 1.67122 22.9403 3.72885 22.9403C4.4 22.9403 5.03076 22.7618 5.57467 22.4513C6.91969 26.377 10.6402 29.2002 15.0218 29.2002C20.5126 29.2002 24.9671 24.7681 25.006 19.2865L33.7365 17.1535C34.5454 16.9576 35 16.4913 35 15.3566V10.6664C35 9.83425 34.2373 9.30472 33.4052 9.30472Z" fill="black"/>
<path d="M15.0289 4.99278C15.6973 4.99278 16.2392 4.45084 16.2392 3.78241V1.21037C16.2392 0.541944 15.6973 0 15.0289 0C14.3604 0 13.8185 0.541944 13.8185 1.21037V3.78241C13.8185 4.45084 14.3604 4.99278 15.0289 4.99278Z" fill="black"/>
<path d="M9.7804 6.43282C10.0169 6.66914 10.3264 6.7873 10.6363 6.7873C10.9461 6.7873 11.2558 6.66914 11.4922 6.43282C11.9648 5.96002 11.9648 5.1937 11.4922 4.7209L9.67343 2.90216C9.20063 2.42967 8.43447 2.42967 7.96167 2.90216C7.48902 3.37497 7.48902 4.14128 7.96167 4.61408L9.7804 6.43282Z" fill="black"/>
<path d="M19.4089 6.7873C19.7188 6.7873 20.0286 6.66914 20.2648 6.43266L22.0834 4.61393C22.556 4.14128 22.556 3.37481 22.0832 2.90216C21.6104 2.42936 20.8439 2.42951 20.3714 2.90231L18.553 4.72105C18.0804 5.1937 18.0804 5.96001 18.5532 6.43266C18.7895 6.66929 19.099 6.7873 19.4089 6.7873Z" fill="black"/>
</svg>
